<?xml version="1.0" encoding="utf-8"?>
<!-- Generator: Adobe Illustrator 24.0.1, SVG Export Plug-In . SVG Version: 6.00 Build 0)  -->
<svg version="1.1" id="Layer_2_1_" xmlns="http://www.w3.org/2000/svg" xmlns:xlink="http://www.w3.org/1999/xlink" x="0px" y="0px"
	 viewBox="0 0 100 45" style="enable-background:new 0 0 100 45;" xml:space="preserve">
<style type="text/css">
	.st0{fill:#FFFFFF;}
</style>
<g>
	<g>
		<g id="GUŠTI_6_">
			<path class="st0" d="M35.3,31.6v4h-0.6l-0.4-1.1c-0.5,0.8-1.2,1.2-2.2,1.2c-1.1,0-1.9-0.4-2.4-1.2s-0.8-1.7-0.8-2.8
				c0-1.1,0.3-2.1,0.9-2.9s1.4-1.2,2.5-1.2c0.8,0,1.5,0.2,2,0.7s0.8,1,1,1.7L34,30.3c-0.2-1-0.8-1.4-1.7-1.4c-0.6,0-1,0.2-1.4,0.7
				s-0.5,1.1-0.5,2.1c0,2,0.6,3,1.9,3c0.5,0,0.9-0.2,1.2-0.5s0.5-0.8,0.5-1.3h-1.6v-1.1L35.3,31.6L35.3,31.6z"/>
			<path class="st0" d="M42.5,28.1v4.8c0,0.7-0.1,1.2-0.2,1.5c-0.2,0.4-0.5,0.7-0.9,0.9c-0.4,0.3-1,0.4-1.6,0.4s-1.2-0.1-1.6-0.3
				c-0.4-0.2-0.7-0.5-0.9-0.9C37.1,34.1,37,33.6,37,33v-4.9h1.5v4.8c0,0.7,0.2,1.1,0.4,1.3c0.3,0.2,0.6,0.3,1,0.3s0.8-0.1,1.1-0.3
				s0.4-0.7,0.4-1.3v-4.8L42.5,28.1L42.5,28.1z"/>
			<path class="st0" d="M44.2,33.6l1.4-0.3c0.2,0.7,0.8,1.1,1.9,1.1c0.5,0,0.9-0.1,1.2-0.3s0.4-0.4,0.4-0.7c0-0.2-0.1-0.4-0.2-0.6
				c-0.1-0.2-0.4-0.3-0.8-0.4L46.6,32c-0.5-0.1-0.9-0.3-1.2-0.4c-0.3-0.2-0.4-0.4-0.6-0.7s-0.2-0.6-0.2-0.9c0-0.7,0.3-1.2,0.8-1.6
				s1.2-0.6,2-0.6c0.7,0,1.3,0.2,1.8,0.4c0.5,0.3,0.9,0.7,1,1.2L49,29.8c-0.2-0.6-0.7-0.9-1.5-0.9c-0.4,0-0.8,0.1-1,0.3
				c-0.2,0.2-0.4,0.4-0.4,0.7c0,0.4,0.4,0.7,1.1,0.9l1.4,0.3c0.8,0.2,1.4,0.5,1.6,0.9c0.3,0.4,0.4,0.8,0.4,1.2
				c0,0.7-0.3,1.3-0.9,1.7c-0.6,0.4-1.3,0.6-2.3,0.6c-0.8,0-1.5-0.2-2.1-0.5C44.8,34.7,44.4,34.2,44.2,33.6z M47.6,27.6L45.8,26
				l1.1-0.1l0.7,0.7l0.5-0.5l1.1,0.1L47.6,27.6z"/>
			<path class="st0" d="M55.8,35.5h-1.5v-6.3h-2.1V28H58v1.2h-2.1v6.3H55.8z"/>
			<path class="st0" d="M61.1,35.5h-1.4v-7.6h1.4V35.5z"/>
		</g>
		<g id="BOKEŠKI_6_">
			<path class="st0" d="M20.7,25.5v-7.8h3.1c0.5,0,1,0.1,1.3,0.2s0.6,0.3,0.9,0.7c0.3,0.3,0.4,0.7,0.4,1.2c0,0.4-0.1,0.8-0.4,1.1
				c-0.3,0.3-0.6,0.5-1.1,0.6c0.6,0.1,1,0.3,1.3,0.7c0.3,0.4,0.4,0.8,0.4,1.3c0,0.6-0.2,1.1-0.6,1.5s-1,0.6-1.9,0.6L20.7,25.5
				L20.7,25.5z M22,21h1.7c0.4,0,0.6-0.1,0.8-0.3c0.2-0.2,0.3-0.5,0.3-0.8c0-0.4-0.1-0.6-0.4-0.8c-0.2-0.2-0.5-0.3-0.8-0.3H22
				C22,18.9,22,21,22,21z M22,24.4h1.9c0.4,0,0.7-0.1,0.9-0.3c0.2-0.2,0.3-0.5,0.3-0.8s-0.1-0.6-0.3-0.8c-0.2-0.2-0.5-0.3-0.9-0.3
				H22V24.4z"/>
			<path class="st0" d="M31.5,25.4c-1.1,0-1.9-0.4-2.5-1.2c-0.6-0.8-0.9-1.7-0.9-2.9c0-1.1,0.3-2.1,0.9-2.8c0.6-0.8,1.4-1.2,2.5-1.2
				c1.1,0,1.9,0.4,2.4,1.2c0.6,0.8,0.9,1.7,0.9,2.9c0,1.2-0.3,2.2-0.9,2.9C33.3,25,32.5,25.4,31.5,25.4z M31.5,24.3
				c0.5,0,1-0.2,1.3-0.6c0.4-0.4,0.5-1.2,0.5-2.3c0-0.9-0.2-1.6-0.4-2.1c-0.3-0.5-0.7-0.8-1.4-0.8c-1.2,0-1.9,1-1.9,2.9
				c0,0.9,0.2,1.7,0.5,2.1C30.5,24,30.9,24.3,31.5,24.3z"/>
			<path class="st0" d="M43.1,25.3h-1.6l-1.7-4l-1.5,2v2h-1.4v-7.8h1.4v4.1c0.2-0.3,0.3-0.5,0.4-0.6l2.6-3.5h1.4l-1.9,2.6L43.1,25.3
				z"/>
			<path class="st0" d="M50,25.3h-5.2v-7.5h5.6V19h-4.2v1.7h3v1.2h-3V24H50V25.3L50,25.3z"/>
			<path class="st0" d="M51.8,23.4l1.4-0.3c0.2,0.8,0.8,1.2,1.9,1.2c0.5,0,0.9-0.1,1.2-0.3c0.3-0.2,0.4-0.5,0.4-0.7
				s-0.1-0.4-0.2-0.6c-0.1-0.2-0.4-0.3-0.8-0.4l-1.5-0.4c-0.5-0.1-0.9-0.3-1.2-0.5s-0.4-0.4-0.6-0.7c-0.2-0.3-0.2-0.6-0.2-1
				c0-0.7,0.3-1.3,0.8-1.7c0.5-0.4,1.2-0.6,2-0.6c0.7,0,1.3,0.2,1.8,0.5s0.9,0.7,1,1.3l-1.4,0.3c-0.2-0.6-0.7-0.9-1.5-0.9
				c-0.4,0-0.8,0.1-1,0.3c-0.2,0.2-0.4,0.4-0.4,0.7c0,0.5,0.4,0.8,1.1,0.9l1.4,0.3c0.8,0.2,1.4,0.5,1.6,0.9c0.3,0.4,0.4,0.8,0.4,1.3
				c0,0.8-0.3,1.4-0.9,1.8s-1.3,0.7-2.3,0.7c-0.8,0-1.5-0.2-2.1-0.5C52.4,24.6,52,24.1,51.8,23.4z"/>
			<polyline class="st0" points="55.2,17.2 53.7,16.1 54.6,16 55.2,16.2 55.6,15.9 56.5,15.9 55.2,17.2 			"/>
			<path class="st0" d="M66.8,25.1h-1.6l-1.7-3.6L62,23.3v1.8h-1.4V18H62v3.7c0.2-0.3,0.3-0.4,0.4-0.5L65,18h1.4l-1.9,2.3L66.8,25.1
				z"/>
			<path class="st0" d="M69.5,25.5H68v-7.8h1.4L69.5,25.5L69.5,25.5z"/>
		</g>
		<g id="HOBOTNICA_6_">
			<path class="st0" d="M36.3,12.7l1.3-0.3c1.5-1.7,3.7-1.8,6.5-0.5c1,0.2,1.9,0,2.9-0.6c0.4-0.2,0.9-0.3,1.5-0.5
				c0.8-0.1,1-0.5,0.5-1.5L48.9,8c-0.5,0.1-0.9,0.3-1,1c-0.8,0-1.3,0.4-1.3,1.1h-0.3l0.1-0.7c-0.7-0.1-1.1,0.1-1.1,0.5l-0.1,0.5
				h-0.5l-0.1-0.5c-0.1-0.5-0.4-0.6-0.8-0.5v0.3L43,9.8l0.1-0.5c-0.5-0.2-0.8-0.3-1.1,0v0.3h-0.4c-0.5-0.7-0.8-0.6-1,0.2
				c-0.8-0.6-1.7,0.4-2.6,1.6L36.3,12.7z"/>
			<path class="st0" d="M65.1,16.6c-5.7,0.5-10.1-1.1-13.6-4.5c-3.2-3.2-2.3-6.2,2.1-5.9c3.8,1.1,1.7,5.2-0.4,3.3L54,8.8l-0.2-0.4
				c-0.1,0-0.5-0.2-0.7-0.2L52.8,8c0.1,0.4,0,0.7-0.6,0.6c0.3,0.4,0.3,0.7,0,0.9c0.1,0.1,0.3,0.3,0.4,0.5c0.5,0.1,0.9,0.2,0.7,0.9
				c0.5,0,1-0.1,1.2,1c0.8-0.2,1.4-0.2,1.3,0.6l0.1,0.4c1.2-0.7,1.7-0.6,1.5,0.4l0.4,0.1c1.2-0.4,1.6-0.2,1,0.6l0.7-0.1L61,14
				l1.8-0.2c0.8,1,1.6,1.3,2.3,1.4C65.5,15.7,65.5,16.2,65.1,16.6z"/>
			<g>
				<path class="st0" d="M68.9,17c-0.2-0.3-0.1-0.6,0.2-0.8c0.3-0.3,0.2-0.7-0.1-1c-0.2-0.3-0.5-0.5-0.7-0.9c-0.2-0.3-0.2-0.8,0.2-1
					c0.3-0.2,0.6-0.1,0.8-0.3c0.1-0.2-0.1-0.4-0.2-0.5c-0.2-0.1-0.5-0.1-0.6-0.3c-0.5-0.8-0.6-3.1-2-2.3c0-0.2,0-0.3,0-0.5
					c0.3,0,0.5-0.3,0.4-0.6c-0.3,0.1-0.6-0.2-0.7-0.5c0.2,0,0.4,0,0.6,0c0.1-0.4,0.3-0.7,0.4-1c0.2,0.4,0.6,0.6,1,0.5
					c0.4,0,0.8-0.3,0.9-0.7c0.1,0.3,0.3,0.5,0.5,0.7s0.6,0.2,0.8,0.1c0.1-0.1,0.2-0.2,0.3-0.2c0.3,0,0.2,0.4,0.3,0.7
					c0.1,0.3,0.5,0.2,0.7,0.1s0.6-0.2,0.8,0c0.1,0.1,0.1,0.2,0.2,0.4c0.3,0.6,1.2,0.7,1.6,0.2c0.1,0.6,0.9,0.8,1.3,0.5
					c0.1-0.1,0.2-0.2,0.3-0.2c0.2,0,0.4,0.3,0.5,0.4c0.2,0.2,0.5,0.2,0.7,0.1s0.3-0.4,0.2-0.6c0.3,0.3,0.6,0.5,1,0.5
					s0.8-0.5,0.5-0.8c0.4,0.2,0.7,0.4,1.1,0.3c0.4-0.1,0.7-0.6,0.4-0.9c0.3,0,0.5,0.1,0.8,0s0.5-0.3,0.5-0.6
					c0.2-0.1,0.3-0.1,0.5-0.1c0.2-0.3,0.3-0.7,0.4-1c0.2-0.8,0.3-1.6-0.1-2.3C82,3.6,81,2.9,80.1,3.2C78.2,3,77.6,4.3,78,6.6
					c0.5,0.3,0.9,0.2,1.3-0.4L80,4.7c0.5,0.6,0.7,1.2,0.1,1.8c-3,1.5-5.7,0.8-9.9-1c-4.3-1.1-10,2.1-6.5,5.4
					c1.2,1.1,2.1,2.4,1.8,3.9c0.3,0.6,0.7,1.3,1.1,2.1L68.9,17z"/>
			</g>
			<g>
				<path class="st0" d="M69.8,15.5c3-1.7,6.1-2.6,9.2-3.1l0.4,0.4c1.6,0.3,3.5,1.3,5.5,2.6c3.3,1.1,6,1.5,6.5-0.7
					c0.2-1.6,0-2.5-0.6-2.9c-0.6-0.7-0.8-0.3-0.8,1l0.8,1.6c-0.5,1-1.2,1.5-1.9,1.2l0.1-0.9L88.6,14l0.1-0.5
					c-0.6,0.1-0.7-0.2-0.3-1.1c-0.6-0.4-0.8-0.8-0.4-1.5l0.1-1c1.6-2,3.7-1.3,5.6,1.8c0.3,0.6,0.7,1.2,0.8,1.9
					c-0.2,0.1-0.4,0.3-0.6,0.4c0.2,0.2,0.3,0.5,0.2,0.7c-0.1,0.3-0.2,0.5-0.4,0.7c-0.2,0.3-0.5,0.6-0.7,0.9c-0.4,0.5-0.9,1-1.5,1.1
					c0.2,0.2,0,0.5-0.2,0.5c-0.2,0.1-0.4,0.1-0.7,0c-0.2,0-0.5-0.1-0.6,0.1c-0.3,0.2-0.3,0.8-0.7,0.8c-0.4,0.1-0.6-0.6-1.1-0.7
					c-0.6-0.1-1,1-1.6,0.8c-0.4-0.1-0.4-0.9-0.9-1c-0.6-0.2-1.1,0.7-1.6,0.6c-0.3-0.1-0.4-0.5-0.5-0.9c-0.1-0.3-0.5-0.7-0.8-0.4
					c0.1,0.4-0.1,0.8-0.4,0.9c-0.3,0.2-0.8,0.1-1-0.2c-0.2-0.2-0.2-0.5-0.3-0.7c-0.1-0.2-0.4-0.4-0.6-0.4c-0.2,0.1-0.3,0.3-0.5,0.4
					c-0.3,0.2-0.7,0.3-1,0.1s-0.4-0.6-0.3-0.9c-0.2,0-0.3,0-0.4-0.1c0.1,0.4-0.1,0.9-0.5,1.2c-0.4,0.3-0.9,0.3-1.3,0.1
					c0-0.3-0.5-0.5-0.7-0.3c0.4,0.4,0.4,1,0.1,1.4s-1,0.5-1.4,0.2c-0.2-0.1-0.3-0.3-0.5-0.4s-0.4-0.2-0.6-0.1
					c-0.2,0.5-0.4,1.1-0.8,1.4c-0.4,0.4-1,0.6-1.5,0.4c-0.6-0.3-0.8-1-0.9-1.6C69.9,17.7,70,16.5,69.8,15.5z"/>
			</g>
			<path class="st0" d="M83.5,5.5c0.3-0.1,0.6,0.1,1,0.1C84.8,5.5,85,5.3,85.2,5c0.1-0.3,0.2-0.6,0.5-0.8c0.6-0.6,1.8-0.4,2.6-0.4
				c0.6,0,1.2,0,1.8,0c0.5,0,1.3-0.2,1.7,0.2c0.1,0.1,0.3,0.4,0.2,0.4c-0.7-0.1-1.4,0.1-1.9,0.6c-0.1,0-0.2,0-0.3,0
				c0-0.2-0.4-0.3-0.5-0.1c-0.1,0.2,0,0.5,0.1,0.7c-0.1,0-0.3,0-0.4,0C89,5.3,88.9,5,88.7,5c-0.2,0-0.3,0.2-0.3,0.3
				c-0.1,0.2-0.1,0.3-0.2,0.4s-0.3,0.1-0.4-0.1c-0.1-0.3-0.2-0.5-0.3-0.7c-0.1,0.2-0.1,0.5-0.2,0.7c-0.2,0-0.4,0-0.6,0.1
				c0.2,0.2,0.2,0.6,0,0.8c-0.2,0.2-0.6,0.3-0.8,0.1c0.2,0.6-0.5,1.2-1,1c-0.1,0-0.2-0.3-0.3-0.4c-0.3-0.2-0.3,0-0.5,0.2
				c-0.3,0.2-0.5,0.5-0.8,0.1C82.8,7.1,82.9,5.6,83.5,5.5z"/>
			<g>
				<path class="st0" d="M92.5,20.3c1.4-0.3,1.9-2,3.4-2.1c0.6-0.1,1.1,0.3,1.7,0.3c0.7,0.1,1.6-0.2,2.3,0.1c0,0-0.8,0.5-0.9,0.5
					c-0.1,0.2-0.1,0.5-0.3,0.6c-0.3,0.1-0.5-0.2-0.5-0.5c-0.3,0.1-0.5,0.3-0.7,0.4c-0.2,0.2-0.4,0.4-0.7,0.5
					c-0.3,0.1-0.6-0.1-0.7-0.4c-0.1,0.6-0.8,1-1.3,0.8c0.2,0.2,0,0.6-0.2,0.7c-0.2,0.2-0.5,0.2-0.8,0.4c-0.2,0.2-0.4,0.4-0.6,0.6
					s-0.5,0.3-0.7,0.2c0.1-0.3-0.2-0.6-0.5-0.6c0.1,0.3-0.3,0.6-0.6,0.6c-0.3,0-0.6-0.4-0.6-0.7c-0.1-0.3,0.1-0.6,0.3-0.9
					c-0.2,0.2-0.5-0.2-0.7-0.3C90,20.2,90,20,90.1,19.6c0.2-0.2,0.4-0.2,0.7-0.3c0-0.4-0.1-0.7,0.2-1c0.2-0.3,0.8-0.8,1-0.9
					C93.2,17,92.6,20,92.5,20.3z"/>
			</g>
			<g>
				<path class="st0" d="M71.6,21c1-0.3,1.7-0.8,2.1-1.4c2.3-0.5,4,1.3,5.3,4.3c1.7,2.8,3.8,3.3,6.2,0.6c2.3-1.3,4.2-1.2,5.7,0.9
					c1.9,2.9,3.8,7.1,5.7,3.7c0.4-0.8,1.2-1.1,2.2-0.9l1.2-0.5l-1,1.2c-0.6-0.1-0.8,0.2-0.8,0.9c-0.5,0-0.7,0.2-0.5,0.6
					c-0.6,0.1-0.7,0.3-0.5,0.8L96,31.4c-0.3,0.5-1.1,0.6-1.7,0.4s-1.3-0.4-1.7,0.1c0.2-0.7-0.3-1.4-0.8-2c-0.6-0.7-1.1-1.4-1.7-2.1
					c-0.6,0.1-1.1-0.6-0.9-1.1C89,26.8,88.8,27,88.6,27s-0.5-0.1-0.5-0.3c-0.1-0.2,0-0.5-0.2-0.5s-0.2,0.3-0.2,0.5
					c-0.2,0.4-0.8,0-1.1,0.3c-0.3,0.2-0.1,0.7-0.3,0.9c-0.2,0.3-0.6,0.1-1,0.2s-0.6,0.4-0.8,0.7c-0.2,0.3-0.5,0.6-0.8,0.7
					c-0.4,0.1-0.8-0.4-0.6-0.7c-0.2,0.3-0.4,0.5-0.7,0.7c-0.3,0.2-0.7,0.2-1,0c-0.2-0.2-0.3-0.4-0.4-0.6s-0.4-0.3-0.6-0.2
					c-0.1,0.2-0.1,0.4-0.2,0.6c-0.2,0.3-0.6,0.1-0.7-0.2s-0.1-0.6-0.3-0.9c-0.3-0.4-0.7-0.4-1.1-0.6s-0.8-0.6-0.6-1
					c-0.3,0.4-1,0.2-1.2-0.3s-0.2-0.9-0.2-1.4c-0.5,0.1-1,0.2-1.5,0s-0.8-0.7-0.6-1.2c0.1-0.2,0.3-0.5,0.3-0.7
					c-0.1-0.3-0.5-0.3-0.8-0.3C72.6,22.8,71.9,21.9,71.6,21z"/>
			</g>
			<path class="st0" d="M80,45c-0.3-0.1-0.5-0.3-0.6-0.5c-0.2,0.2-0.6,0-0.5-0.3c-0.3,0.1-0.6-0.3-0.7-0.5c-0.2-0.2-0.3-0.5-0.5-0.7
				c-0.4-0.6-0.8-1.3-0.5-1.9c-0.2,0-0.4-0.1-0.6-0.1c0-0.4,0.1-0.8,0.3-1.2C76.4,40,76,39.4,76.2,39c0.1-0.1,0.2-0.2,0.2-0.3
				c0-0.2-0.2-0.4-0.3-0.5C76,38,75.8,37.8,76,37.6c0.2,0,0.3-0.1,0.5-0.1c-0.1-0.3-0.3-0.6-0.4-1c0-0.4,0.3-0.7,0.6-0.6
				c-0.2-0.2-0.4-0.4-0.5-0.7s0.2-0.6,0.5-0.5c-0.1-0.3-0.1-0.7,0.2-1c-0.3,0.1-0.6,0.1-0.9,0s-0.5-0.5-0.3-0.7
				c-0.2-0.2-0.6,0.1-0.5,0.3c-0.3,0-0.6,0.1-0.9-0.2c-0.2-0.2-0.2-0.7,0.2-0.7c-0.5,0.1-1.1,0.2-1.7,0.2c-0.1-0.4-0.3-0.7-0.7-0.8
				c-0.4-0.1-0.8-0.1-1.1,0.2c-0.2-0.4-0.3-0.8-0.5-1.2c-0.4,0.2-1,0.2-1.3-0.1c-0.4-0.3-0.5-0.8-0.4-1.2c-0.3-0.1-0.7-0.3-1-0.4
				c-0.1-0.2-0.1-0.4-0.1-0.6c0.2-0.1,0.3-0.4,0.4-0.6c-0.4-0.1-0.8-0.4-0.8-0.8c1-1.4,2.2-1.9,3.3-0.9c0,0.8,0,1.4,0.1,2
				c2.5,1.5,4.9,2.8,6.1,2.9C79,31,80,32.2,79,34.5c-1.3,4.1-1.5,7.6,1.1,10.1"/>
			<path class="st0" d="M30.1,40l-4.3-2.1c0-0.2,0-0.4,0.4-0.4l1.2,0.5c0.5,0.1,0.8,0.1,1-0.4l1.1-2.2c0.3,0.2,0.5,0.4,0.8,0.4
				L29,38c-0.1,0.3-0.1,0.5,0.2,0.7l1,0.6C30.2,39.7,30.2,40,30.1,40z"/>
		</g>
		<g id="KONOBA_13_">
			<path class="st0" d="M5.6,5.4H4.2L1.2,3C1.1,2.9,1,2.8,1,2.8l0,0v2.6H0V0.1h0.9v2.5l0,0c0.1,0,0.2-0.1,0.3-0.2l3-2.3h1.2L1.9,2.6
				L5.6,5.4z"/>
			<path class="st0" d="M9.8,5.5c-1.1,0-2-0.3-2.7-0.8s-1-1.2-1-1.9c0-0.9,0.3-1.5,1-2.1S8.7,0,9.9,0c1.1,0,2,0.3,2.6,0.7
				c0.7,0.5,1,1.2,1,1.9c0,0.9-0.3,1.6-1,2.1C11.9,5.3,11,5.5,9.8,5.5z M9.9,0.6c-0.8,0-1.5,0.2-2,0.6S7,2.1,7,2.8S7.3,4,7.8,4.4
				S9,5,9.8,5c0.9,0,1.6-0.2,2.1-0.6c0.5-0.4,0.8-0.9,0.8-1.6S12.4,1.6,12,1.2C11.4,0.8,10.7,0.6,9.9,0.6z"/>
			<path class="st0" d="M21.6,5.4h-1.2l-4.1-4.2C16.2,1.1,16.1,1,16,0.9l0,0c0,0.1,0.1,0.4,0.1,0.7v3.9h-0.9V0.1h1.2l4,4.2
				c0.2,0.2,0.3,0.3,0.3,0.4l0,0c-0.1-0.2-0.1-0.4-0.1-0.8V0.1h0.9v5.3H21.6z"/>
			<path class="st0" d="M26.9,5.5c-1.1,0-2-0.3-2.7-0.8s-1-1.2-1-1.9c0-0.9,0.3-1.5,1-2.1C24.9,0.3,25.8,0,27,0c1.1,0,2,0.3,2.6,0.7
				c0.7,0.5,1,1.2,1,1.9c0,0.9-0.3,1.6-1,2.1C29,5.3,28.1,5.5,26.9,5.5z M27,0.6c-0.8,0-1.5,0.2-2,0.6s-0.8,0.9-0.8,1.6
				S24.5,4,25,4.4S26.2,5,27,5c0.9,0,1.6-0.2,2.1-0.6s0.8-0.9,0.8-1.6S29.5,1.5,29,1.1C28.5,0.8,27.9,0.6,27,0.6z"/>
			<path class="st0" d="M32.3,5.4V0.1h2.3c0.7,0,1.2,0.1,1.6,0.4c0.4,0.2,0.6,0.5,0.6,0.9c0,0.3-0.1,0.6-0.4,0.8
				c-0.3,0.2-0.6,0.4-1,0.5l0,0c0.5,0.1,1,0.2,1.3,0.4s0.5,0.5,0.5,0.9c0,0.5-0.3,0.8-0.7,1.1c-0.5,0.3-1.1,0.4-1.9,0.4L32.3,5.4
				L32.3,5.4z M33.2,0.7v1.7h1c0.5,0,0.9-0.1,1.2-0.3s0.4-0.4,0.4-0.7c0-0.5-0.5-0.8-1.5-0.8L33.2,0.7L33.2,0.7z M33.2,2.9v1.9h1.3
				c0.5,0,1-0.1,1.3-0.3c0.3-0.2,0.4-0.4,0.4-0.7c0-0.6-0.6-1-1.9-1L33.2,2.9L33.2,2.9L33.2,2.9z"/>
			<path class="st0" d="M45,5.4h-1l-0.8-1.5h-3.4L39,5.4h-1l3-5.3h1L45,5.4z M42.8,3.4l-1.3-2.3c-0.1-0.1-0.1-0.2-0.1-0.4l0,0
				c0,0.2-0.1,0.3-0.1,0.4L40,3.4H42.8z"/>
		</g>
	</g>
</g>
</svg>
