<?xml version="1.0" encoding="utf-8"?>
<!-- Generator: Adobe Illustrator 24.0.1, SVG Export Plug-In . SVG Version: 6.00 Build 0)  -->
<svg version="1.1" id="Layer_1" xmlns="http://www.w3.org/2000/svg" xmlns:xlink="http://www.w3.org/1999/xlink" x="0px" y="0px"
	 viewBox="0 0 50 30" style="enable-background:new 0 0 50 30;" xml:space="preserve">
<style type="text/css">
	.st0{fill:#700C15;}
</style>
<path class="st0" d="M0,0v8.8c0.9,1.5,1.9,2.8,3,4.1c2.4,2.7,5.4,4.8,8.8,6.4c3.9,1.8,8.5,3,13.5,3.3c1.3,0.1,2.1,0.1,3.6,0.1
	c1.9,0,3.4-0.1,4.9-0.2h0.4V26c0,3.2,0,3.5,0.1,3.6s0.3,0.3,0.4,0.3c0.2,0.1,0.5,0.1,0.7,0c0.1,0,0.2-0.1,0.3-0.1
	c0.3-0.1,14.2-10.5,14.2-10.6c0.1-0.1,0.1-0.4,0-0.6c0-0.1-1.8-1.7-4-3.6s-5.2-4.6-6.8-6s-3-2.6-3.1-2.8C35.7,6.1,35.5,6,35.1,6
	c-0.3,0-0.5,0.1-0.7,0.3l-0.1,0.1v3.7v3.7H34c-1.4,0.2-3.5,0.4-5.2,0.4c-7.1,0-13.7-1.9-19.3-5.4C5.9,6.5,2.7,3.6,0,0z"/>
</svg>
