<?xml version="1.0" encoding="utf-8"?>
<!-- Generator: Adobe Illustrator 24.0.1, SVG Export Plug-In . SVG Version: 6.00 Build 0)  -->
<svg version="1.1" id="Layer_1" xmlns="http://www.w3.org/2000/svg" xmlns:xlink="http://www.w3.org/1999/xlink" x="0px" y="0px"
	 viewBox="0 0 50 30" style="enable-background:new 0 0 50 30;" xml:space="preserve">
<style type="text/css">
	.st0{fill:#700C15;}
</style>
<path class="st0" d="M50,0v8.8c-0.9,1.5-1.9,2.8-3,4.1c-2.4,2.7-5.4,4.8-8.8,6.4c-3.9,1.8-8.5,3-13.5,3.3c-1.3,0.1-2.1,0.1-3.6,0.1
	c-1.9,0-3.4-0.1-4.9-0.2h-0.4V26c0,3.2,0,3.5-0.1,3.6s-0.3,0.3-0.4,0.3c-0.2,0.1-0.5,0.1-0.7,0c-0.1,0-0.2-0.1-0.3-0.1
	C14.1,29.7,0.1,19.4,0.1,19.3c-0.1-0.1-0.1-0.4,0-0.6c0-0.1,1.8-1.7,4-3.6s5.2-4.6,6.8-6s3-2.6,3.1-2.8C14.3,6.1,14.5,6,14.9,6
	c0.3,0,0.5,0.1,0.7,0.3l0.1,0.1v3.7v3.7l0.3,0.1c1.4,0.2,3.5,0.4,5.2,0.4c7.1,0,13.7-1.9,19.3-5.4C44.1,6.5,47.3,3.6,50,0z"/>
</svg>
