<?xml version="1.0" encoding="utf-8"?>
<!-- Generator: Adobe Illustrator 24.0.1, SVG Export Plug-In . SVG Version: 6.00 Build 0)  -->
<svg version="1.1" id="Layer_1" xmlns="http://www.w3.org/2000/svg" xmlns:xlink="http://www.w3.org/1999/xlink" x="0px" y="0px"
	 viewBox="0 0 55 45" style="enable-background:new 0 0 55 45;" xml:space="preserve">
<style type="text/css">
	.st0{fill:#959AAA;}
</style>
<g>
	<g id="meanicons_x5F_54">
		<path class="st0" d="M53.2,11.7c-0.3-0.9-1.2-0.6-1.4,0.5c-0.7,3.8-2,11.3-2.7,14.9c-0.1,0.4-0.7,1-1.1,1
			c-6.1-0.2-26.6-0.5-26.6-0.5L14.7,8.6l-0.4-1.3c-0.1-0.2-0.1-0.3-0.2-0.4c-0.5-1.1-1.2-1.9-1.8-2.3C11.6,4.1,11.1,4,11,3.9l0,0
			L6.3,2.8C6,2.2,5,1.7,3.8,1.7c-1.4,0-2.6,0.7-2.6,1.5c0,0.8,1.2,1.5,2.6,1.5c0.5,0,0.9-0.1,1.3-0.2l5.1,1.3c0.1,0,0.4,0.1,0.7,0.4
			c0.4,0.3,0.8,0.7,1.1,1.4c0.4,0.9,2.3,6.1,4.1,11c0.9,2.4,1.8,4.8,2.4,6.6c0.6,1.6,1,2.7,1.1,2.9c0,0.1,0.1,0.3,0.1,0.6
			c0,0.3,0,0.6-0.2,0.9c-0.1,0.3-0.3,0.5-0.7,0.6c-1.3,0.6-2.1,1.8-2.1,3.1c0,0.8,0.3,1.7,1.1,2.3c0.7,0.6,1.8,0.9,3,0.9
			c0.3,0,0.8,0,1.4,0l1.7,0c-1.5,0.5-2.5,1.8-2.5,3.3c0,1.9,1.6,3.5,3.6,3.5c2,0,3.6-1.6,3.6-3.5c0-1.6-1.1-2.9-2.5-3.3l1.7,0
			c2.4,0,5.2,0,7.8,0c1.9,0,3.7,0,5.3,0l1.6,0c-1.4,0.5-2.4,1.8-2.4,3.3c0,1.9,1.6,3.5,3.6,3.5c2,0,3.6-1.6,3.6-3.5
			c0-1.5-1-2.8-2.4-3.3l1.6,0c0.6,0,1,0,1,0c0,0,0,0,0,0c0.1,0,0.2,0,0.2,0c0.5,0,1-0.4,1-1c0-0.5-0.4-1-1-1c0,0-22.7-0.1-26.7-0.1
			c-0.9,0-1.5-0.2-1.7-0.5c-0.3-0.2-0.4-0.5-0.4-0.8c0-0.5,0.4-1.1,0.9-1.3c0.8-0.3,1.4-0.9,1.7-1.6c0.1-0.3,0.2-0.6,0.3-0.9
			c0.2,0,0.4,0.1,0.6,0.1L48,30.1c0,0,0,0,0,0c0,0,0,0,0,0h0.1c0,0,0,0,0,0c0.6,0,1.1-0.2,1.5-0.5c0.4-0.3,0.7-0.8,0.8-1.4l2.5-14.5
			c0-0.2,0-0.4,0-0.5C53.2,12.7,53.3,12.1,53.2,11.7z"/>
	</g>
	<g id="meanicons_x5F_54_1_">
		<path class="st0" d="M54.2,11.3c-0.3-0.9-1.2-0.6-1.4,0.6c-0.7,4-2.1,11.7-2.8,15.5c-0.1,0.4-0.7,1-1.1,1
			c-6.4-0.2-27.6-0.5-27.6-0.5l-7-19.8l-0.4-1.3c-0.1-0.2-0.1-0.4-0.2-0.5c-0.5-1.2-1.2-2-1.9-2.4c-0.7-0.5-1.2-0.6-1.3-0.6l0,0
			L5.5,2C5.2,1.4,4.2,0.9,2.9,0.9c-1.5,0-2.7,0.7-2.7,1.6C0.3,3.3,1.5,4,2.9,4C3.4,4,3.9,4,4.3,3.8l5.3,1.3c0.1,0,0.4,0.2,0.8,0.4
			c0.4,0.3,0.8,0.7,1.1,1.5c0.4,0.9,2.4,6.3,4.2,11.4c0.9,2.5,1.9,5,2.5,6.9c0.6,1.6,1,2.8,1.1,3c0,0.1,0.1,0.3,0.1,0.6
			c0,0.3,0,0.6-0.2,0.9c-0.1,0.3-0.3,0.5-0.8,0.7c-1.4,0.6-2.1,1.9-2.2,3.2c0,0.8,0.3,1.7,1.1,2.4c0.8,0.6,1.8,1,3.1,1
			c0.4,0,0.9,0,1.5,0l1.8,0c-1.5,0.5-2.6,1.8-2.6,3.5c0,2,1.7,3.7,3.7,3.7c2.1,0,3.7-1.6,3.7-3.7c0-1.6-1.1-3-2.6-3.5l1.8,0
			c2.5,0,5.4,0,8.1,0c1.9,0,3.8,0,5.5,0l1.7,0c-1.5,0.5-2.5,1.8-2.5,3.4c0,2,1.7,3.7,3.7,3.7c2.1,0,3.7-1.6,3.7-3.7
			c0-1.6-1-2.9-2.5-3.4l1.6,0c0.6,0,1,0,1,0c0,0,0,0,0,0c0.1,0,0.2,0,0.2,0c0.6,0,1-0.4,1-1c0-0.5-0.5-1-1-1c0,0-23.6-0.1-27.7-0.1
			c-1,0-1.5-0.2-1.8-0.5c-0.3-0.2-0.4-0.5-0.4-0.9c0-0.5,0.4-1.2,0.9-1.4c0.9-0.4,1.5-1,1.8-1.6c0.2-0.3,0.2-0.6,0.3-0.9
			c0.2,0,0.4,0.1,0.6,0.1l26.7,0.5c0,0,0,0,0,0c0,0,0,0,0,0H49c0,0,0,0,0.1,0c0.6,0,1.1-0.2,1.6-0.5c0.4-0.3,0.8-0.8,0.9-1.4
			l2.6-15.1c0-0.2,0-0.4,0-0.6C54.2,12.4,54.3,11.7,54.2,11.3z"/>
	</g>
	<g>
		<path class="st0" d="M53.8,12H30.4c-0.6,0-1-0.4-1-1s0.4-1,1-1h23.4c0.6,0,1,0.4,1,1S54.3,12,53.8,12z"/>
	</g>
</g>
</svg>
