<?xml version="1.0" encoding="utf-8"?>
<!-- Generator: Adobe Illustrator 24.0.1, SVG Export Plug-In . SVG Version: 6.00 Build 0)  -->
<svg version="1.1" id="Layer_1" xmlns="http://www.w3.org/2000/svg" xmlns:xlink="http://www.w3.org/1999/xlink" x="0px" y="0px"
	 viewBox="0 0 64 64" style="enable-background:new 0 0 64 64;" xml:space="preserve">
<style type="text/css">
	.st0{fill:#FFFFFF;}
	.st1{fill:#444B54;}
</style>
<path class="st0" d="M32,7C18.2,7,7,18.2,7,32s11.2,25,25,25s25-11.2,25-25S45.8,7,32,7z"/>
<path class="st1" d="M32,58.5C17.4,58.5,5.5,46.6,5.5,32S17.4,5.5,32,5.5S58.5,17.4,58.5,32S46.6,58.5,32,58.5z M32,8.5
	C19,8.5,8.5,19,8.5,32S19,55.5,32,55.5S55.5,45,55.5,32S45,8.5,32,8.5z"/>
<path class="st1" d="M43.3,26H20.8c-0.9,0-1.5-0.6-1.5-1.5s0.6-1.5,1.5-1.5h22.5c0.8,0,1.5,0.6,1.5,1.5S44.1,26,43.3,26z M43.3,33.5
	H20.8c-0.9,0-1.5-0.7-1.5-1.5s0.6-1.5,1.5-1.5h22.5c0.8,0,1.5,0.6,1.5,1.5C44.8,32.8,44.1,33.5,43.3,33.5z"/>
<g>
	<path class="st1" d="M43.3,41H20.8c-0.9,0-1.5-0.7-1.5-1.5s0.6-1.5,1.5-1.5h22.5c0.8,0,1.5,0.7,1.5,1.5S44.1,41,43.3,41z"/>
</g>
</svg>
