<?xml version="1.0" encoding="iso-8859-1"?>
<!-- Uploaded to: SVG Repo, www.svgrepo.com, Generator: SVG Repo Mixer Tools -->
<svg fill="#000000" height="800px" width="800px" version="1.1" id="Capa_1" xmlns="http://www.w3.org/2000/svg" xmlns:xlink="http://www.w3.org/1999/xlink" 
	 viewBox="0 0 20.633 20.633" xml:space="preserve">
<g>
	<path d="M5.015,10.79l9.646,9.646c0.13,0.133,0.302,0.197,0.471,0.197c0.173,0,0.344-0.064,0.473-0.197l0.013-0.011
		c0.127-0.12,0.198-0.293,0.198-0.473v-4.68c0-0.182-0.07-0.347-0.198-0.475l-4.479-4.477l4.479-4.483
		c0.127-0.123,0.198-0.294,0.198-0.473V0.682c0-0.176-0.07-0.345-0.198-0.474l-0.013-0.012C15.483,0.071,15.313,0,15.132,0
		c-0.173,0-0.346,0.071-0.471,0.196L5.015,9.845C4.75,10.104,4.75,10.532,5.015,10.79z"/>
	<g>
	</g>
	<g>
	</g>
	<g>
	</g>
	<g>
	</g>
	<g>
	</g>
	<g>
	</g>
	<g>
	</g>
	<g>
	</g>
	<g>
	</g>
	<g>
	</g>
	<g>
	</g>
	<g>
	</g>
	<g>
	</g>
	<g>
	</g>
	<g>
	</g>
</g>
</svg>