<?xml version="1.0" encoding="utf-8"?>
<!-- Generator: Adobe Illustrator 24.0.1, SVG Export Plug-In . SVG Version: 6.00 Build 0)  -->
<svg version="1.1" id="Layer_1" xmlns="http://www.w3.org/2000/svg" xmlns:xlink="http://www.w3.org/1999/xlink" x="0px" y="0px"
	 viewBox="0 0 50 50" style="enable-background:new 0 0 50 50;" xml:space="preserve">
<style type="text/css">
	.st0{fill:#959AAA;}
</style>
<path class="st0" d="M35.2,16.1c-4.9-5.6-13.5-6.2-19.1-1.2c-5.6,4.9-6.2,13.5-1.2,19.1c4.9,5.6,13.5,6.2,19.1,1.2
	C39.5,30.2,40.1,21.7,35.2,16.1z M31.8,32.7C27.5,36.4,21,36,17.3,31.7C13.6,27.5,14,21,18.2,17.3c4.2-3.7,10.7-3.3,14.4,0.9
	C36.4,22.5,36,29,31.8,32.7z M35.2,16.1c-4.9-5.6-13.5-6.2-19.1-1.2c-5.6,4.9-6.2,13.5-1.2,19.1c4.9,5.6,13.5,6.2,19.1,1.2
	C39.5,30.2,40.1,21.7,35.2,16.1z M31.8,32.7C27.5,36.4,21,36,17.3,31.7C13.6,27.5,14,21,18.2,17.3c4.2-3.7,10.7-3.3,14.4,0.9
	C36.4,22.5,36,29,31.8,32.7z M47.8,26.9c0.1-0.9,0.1-1.8,0.1-2.7c0-0.9-0.1-1.7-0.2-2.6l-4.5-0.7l-1.5-4.3l3-3.5
	c-0.9-1.5-2-2.9-3.2-4.2l-4.1,2.1l-3.8-2.6l0.4-4.6c-1.6-0.7-3.2-1.2-4.9-1.4l-2.1,4.1l-4.5,0.1l-2.3-4c-1.7,0.4-3.4,1-5,1.8L15.6,9
	L12,11.8L7.8,10c-1.2,1.3-2.2,2.8-3,4.3L8,17.6L6.7,22l-4.5,1c-0.1,0.9-0.1,1.8-0.1,2.8c0,0.9,0.1,1.7,0.2,2.5L6.9,29l1.5,4.3
	l-3,3.4c0.9,1.5,2,2.9,3.2,4.2l4.1-2l3.8,2.6L16.1,46c1.6,0.7,3.3,1.2,5.1,1.5l2.1-4.1l4.5-0.1l2.3,4c1.7-0.4,3.4-1,5-1.8l-0.7-4.5
	l3.6-2.8l4.2,1.8c1.2-1.3,2.2-2.8,3-4.4L42,32.3l1.3-4.4L47.8,26.9z M34.9,36.3c-6.2,5.5-15.7,4.9-21.2-1.4
	c-5.5-6.2-4.9-15.7,1.4-21.2c6.2-5.5,15.7-4.9,21.2,1.4C41.7,21.3,41.1,30.8,34.9,36.3z M16,14.8c-5.6,4.9-6.2,13.5-1.2,19.1
	c4.9,5.6,13.5,6.2,19.1,1.2c5.6-4.9,6.2-13.5,1.2-19.1C30.2,10.5,21.7,9.9,16,14.8z M31.8,32.7C27.5,36.4,21,36,17.3,31.7
	C13.6,27.5,14,21,18.2,17.3c4.2-3.7,10.7-3.3,14.4,0.9C36.4,22.5,36,29,31.8,32.7z"/>
</svg>
