<?xml version="1.0" encoding="utf-8"?>
<!-- Generator: Adobe Illustrator 24.0.1, SVG Export Plug-In . SVG Version: 6.00 Build 0)  -->
<svg version="1.1" id="Layer_1" xmlns="http://www.w3.org/2000/svg" xmlns:xlink="http://www.w3.org/1999/xlink" x="0px" y="0px"
	 viewBox="0 0 11 15" style="enable-background:new 0 0 11 15;" xml:space="preserve">
<style type="text/css">
	.st0{fill-rule:evenodd;clip-rule:evenodd;fill:#2E0000;}
</style>
<path class="st0" d="M7.6,0h2.6C10.6,0,11,0.4,11,0.8v13.4c0,0.4-0.4,0.8-0.8,0.8H7.6c-0.4,0-0.8-0.4-0.8-0.8V0.8
	C6.8,0.4,7.2,0,7.6,0z M0.8,0h2.6c0.4,0,0.8,0.4,0.8,0.8v13.4c0,0.4-0.4,0.8-0.8,0.8H0.8C0.4,15,0,14.6,0,14.2V0.8
	C0,0.4,0.4,0,0.8,0z"/>
</svg>
