<?xml version="1.0" encoding="utf-8"?>
<!-- Generator: Adobe Illustrator 24.0.1, SVG Export Plug-In . SVG Version: 6.00 Build 0)  -->
<svg version="1.1" id="Layer_1" xmlns="http://www.w3.org/2000/svg" xmlns:xlink="http://www.w3.org/1999/xlink" x="0px" y="0px"
	 viewBox="0 0 40 24" style="enable-background:new 0 0 40 24;" xml:space="preserve">
<style type="text/css">
	.st0{fill:#001163;}
	.st1{fill:#FFFFFF;}
	.st2{fill:#D00000;}
</style>
<g>
	<polygon class="st0" points="0,16.8 0,22.8 8.7,16.8 	"/>
	<polygon class="st0" points="40,22.8 40,16.8 31.3,16.8 	"/>
	<polygon class="st0" points="40,7.5 40,1.4 31.2,7.5 	"/>
	<polygon class="st0" points="16,0 7.1,0 16,6.2 	"/>
	<polygon class="st0" points="0,1.4 0,7.5 8.8,7.5 	"/>
	<polygon class="st0" points="32.9,0 24,0 24,6.2 	"/>
	<polygon class="st0" points="7.4,24 16,24 16,18 	"/>
	<polygon class="st0" points="24,18 24,24 32.6,24 	"/>
	<polygon class="st1" points="22.4,16.9 22.4,24 24,24 24,18 	"/>
	<polygon class="st1" points="24,6.2 24,0 22.4,0 22.4,7.3 	"/>
	<polygon class="st1" points="16,18 16,24 17.6,24 17.6,16.9 	"/>
	<polygon class="st1" points="17.6,7.3 17.6,0 16,0 16,6.2 	"/>
	<polygon class="st1" points="31.3,16.8 40,16.8 40,14.8 28.5,14.8 	"/>
	<polygon class="st1" points="28.5,9.4 40,9.4 40,7.5 31.2,7.5 	"/>
	<polygon class="st1" points="11.5,14.8 0,14.8 0,16.8 8.7,16.8 	"/>
	<polygon class="st1" points="8.8,7.5 0,7.5 0,9.4 11.5,9.4 	"/>
	<polygon class="st1" points="24,7.5 31.2,7.5 40,1.4 40,0 32.9,0 24,6.2 	"/>
	<polygon class="st1" points="16,16.8 8.7,16.8 0,22.8 0,24 7.4,24 16,18 	"/>
	<polygon class="st1" points="16,16.8 16,18 17.6,16.9 17.6,16.8 	"/>
	<polygon class="st1" points="24,7.5 24,6.2 22.4,7.3 22.4,7.5 	"/>
	<polygon class="st1" points="28.5,9.4 31.2,7.5 24,7.5 24,9.4 	"/>
	<polygon class="st1" points="11.5,14.8 8.7,16.8 16,16.8 16,14.8 	"/>
	<rect x="22.4" y="7.5" class="st1" width="1.6" height="1.9"/>
	<rect x="16" y="14.8" class="st1" width="1.5" height="1.9"/>
	<polygon class="st1" points="16,7.5 16,6.2 7.1,0 0,0 0,1.4 8.8,7.5 	"/>
	<polygon class="st1" points="24,16.8 24,18 32.6,24 40,24 40,22.8 31.3,16.8 	"/>
	<polygon class="st1" points="22.4,16.8 22.4,16.9 24,18 24,16.8 	"/>
	<polygon class="st1" points="17.6,7.3 16,6.2 16,7.5 17.6,7.5 	"/>
	<polygon class="st1" points="24,16.8 31.3,16.8 28.5,14.8 24,14.8 	"/>
	<polygon class="st1" points="16,7.5 8.8,7.5 11.5,9.4 16,9.4 	"/>
	<rect x="16" y="7.5" class="st1" width="1.5" height="1.9"/>
	<rect x="22.4" y="14.8" class="st1" width="1.6" height="1.9"/>
	<polygon class="st2" points="22.2,16.8 17.8,16.8 17.6,16.9 17.6,24 22.4,24 22.4,16.9 	"/>
	<polygon class="st2" points="17.9,7.5 22.2,7.5 22.4,7.3 22.4,0 17.6,0 17.6,7.3 	"/>
	<polygon class="st2" points="22.2,7.5 17.9,7.5 20,9 	"/>
	<polygon class="st2" points="17.8,16.8 22.2,16.8 20,15.3 	"/>
	<polygon class="st2" points="22.4,7.3 22.2,7.5 22.4,7.5 	"/>
	<polygon class="st2" points="17.6,16.9 17.8,16.8 17.6,16.8 	"/>
	<polygon class="st2" points="19.4,14.8 17.6,14.8 17.6,16.8 17.8,16.8 20,15.3 	"/>
	<polygon class="st2" points="20.6,9.4 22.4,9.4 22.4,7.5 22.2,7.5 20,9 	"/>
	<polygon class="st2" points="17.9,7.5 17.6,7.3 17.6,7.5 	"/>
	<polygon class="st2" points="22.2,16.8 22.4,16.9 22.4,16.8 	"/>
	<polygon class="st2" points="17.6,9.4 19.4,9.4 20,9 17.9,7.5 17.6,7.5 	"/>
	<polygon class="st2" points="22.4,14.8 20.6,14.8 20,15.3 22.2,16.8 22.4,16.8 	"/>
	<polygon class="st2" points="20,9 19.4,9.4 20.6,9.4 	"/>
	<polygon class="st2" points="20,15.3 20.6,14.8 19.4,14.8 	"/>
	<polygon class="st2" points="15.5,12.1 11.5,9.4 0,9.4 0,14.8 11.5,14.8 	"/>
	<polygon class="st2" points="24.6,12.1 28.5,14.8 40,14.8 40,9.4 28.5,9.4 	"/>
	<polygon class="st2" points="24,11.7 24.6,12.1 28.5,9.4 24,9.4 	"/>
	<polygon class="st2" points="16,12.5 15.5,12.1 11.5,14.8 16,14.8 	"/>
	<polygon class="st2" points="24,11.7 24,9.4 22.4,9.4 22.4,10.6 	"/>
	<polygon class="st2" points="16,12.5 16,14.8 17.6,14.8 17.6,13.6 	"/>
	<polygon class="st2" points="24,14.8 28.5,14.8 24.6,12.1 24,12.5 	"/>
	<polygon class="st2" points="16,9.4 11.5,9.4 15.5,12.1 16,11.7 	"/>
	<polygon class="st2" points="24,12.5 22.4,13.6 22.4,14.8 24,14.8 	"/>
	<polygon class="st2" points="17.6,9.4 16,9.4 16,11.7 17.6,10.6 	"/>
	<polygon class="st2" points="16,11.7 15.5,12.1 16,12.5 	"/>
	<polygon class="st2" points="24,12.5 24.6,12.1 24,11.7 	"/>
	<polygon class="st2" points="17.6,10.6 16,11.7 16,12.5 17.6,13.6 	"/>
	<polygon class="st2" points="22.4,13.6 24,12.5 24,11.7 22.4,10.6 	"/>
	<polygon class="st2" points="22.4,9.4 20.6,9.4 22.4,10.6 	"/>
	<polygon class="st2" points="17.6,14.8 19.4,14.8 17.6,13.6 	"/>
	<polygon class="st2" points="20.6,14.8 22.4,14.8 22.4,13.6 	"/>
	<polygon class="st2" points="19.4,9.4 17.6,9.4 17.6,10.6 	"/>
	<polygon class="st2" points="22.4,10.6 20.6,9.4 19.4,9.4 17.6,10.6 17.6,13.6 19.4,14.8 20.6,14.8 22.4,13.6 	"/>
</g>
</svg>
