<?xml version="1.0" encoding="utf-8"?>
<!-- Generator: Adobe Illustrator 24.0.1, SVG Export Plug-In . SVG Version: 6.00 Build 0)  -->
<svg version="1.1" id="Layer_1" xmlns="http://www.w3.org/2000/svg" xmlns:xlink="http://www.w3.org/1999/xlink" x="0px" y="0px"
	 viewBox="0 0 24 24" style="enable-background:new 0 0 24 24;" xml:space="preserve">
<style type="text/css">
	.st0{clip-path:url(#SVGID_2_);}
	.st1{fill:#FFFFFF;}
	.st2{fill:#0A46B8;}
	.st3{fill:#DE0000;}
	.st4{fill:#E00006;}
	.st5{fill:#FCCF16;}
</style>
<g>
</g>
<g>
	<defs>
		<circle id="SVGID_1_" cx="12" cy="12" r="12"/>
	</defs>
	<clipPath id="SVGID_2_">
		<use xlink:href="#SVGID_1_"  style="overflow:visible;"/>
	</clipPath>
	<g class="st0">
		<g>
			<rect x="-8" y="8" class="st1" width="40" height="8"/>
			<rect x="-8" y="0" class="st2" width="40" height="8"/>
			<rect x="-8" y="16" class="st3" width="40" height="8"/>
		</g>
		<g>
			<polygon class="st4" points="8.7,13 3.4,9.2 9.9,9.2 12,3 14.1,9.2 20.6,9.2 15.3,13 17.3,19.2 12,15.5 6.7,19.2 			"/>
			<path class="st5" d="M12,3.6l1.8,5.6l0.1,0.3h0.3h5.9l-4.7,3.4l-0.3,0.1l0.1,0.3l1.8,5.6l-4.6-3.4L12,15.2l-0.3,0.1L7,18.7
				l1.8-5.6l0.1-0.3l-0.3-0.1L3.9,9.4h5.9h0.3l0.2-0.2L12,3.6 M12,2.4L9.8,9H2.8l5.7,4.1l-2.2,6.6l5.7-4.1l5.7,4.1l-2.2-6.6L21.2,9
				h-7L12,2.4L12,2.4z"/>
		</g>
	</g>
</g>
</svg>
