<?xml version="1.0" encoding="utf-8"?>
<!-- Generator: Adobe Illustrator 24.0.1, SVG Export Plug-In . SVG Version: 6.00 Build 0)  -->
<svg version="1.1" id="Layer_1" xmlns="http://www.w3.org/2000/svg" xmlns:xlink="http://www.w3.org/1999/xlink" x="0px" y="0px"
	 viewBox="0 0 40 24" style="enable-background:new 0 0 40 24;" xml:space="preserve">
<style type="text/css">
	.st0{fill:#FFFFFF;}
	.st1{fill:#0A46B8;}
	.st2{fill:#DE0000;}
	.st3{fill:#E00006;}
	.st4{fill:#FCCF16;}
</style>
<g>
	<rect y="8" class="st0" width="40" height="8"/>
	<rect class="st1" width="40" height="8"/>
	<rect y="16" class="st2" width="40" height="8"/>
</g>
<g>
	<polygon class="st3" points="16.2,13.3 10,8.9 17.6,8.9 20,1.7 22.4,8.9 30,8.9 23.8,13.3 26.2,20.5 20,16.2 13.8,20.5 	"/>
	<path class="st4" d="M20,2.4l2.1,6.5l0.1,0.3h0.3h6.9l-5.5,3.9l-0.3,0.1l0.1,0.3l2.1,6.5L20.4,16L20,15.9L19.7,16l-5.5,3.9l2.1-6.5
		l0.1-0.3l-0.3-0.1l-5.5-3.9h6.9h0.3L18,8.9L20,2.4 M20,1l-2.5,7.7H9.3l6.6,4.8l-2.5,7.7l6.6-4.8l6.6,4.8l-2.5-7.7l6.6-4.8h-8.1
		L20,1L20,1z"/>
</g>
</svg>
