<?xml version="1.0" encoding="utf-8"?>
<!-- Generator: Adobe Illustrator 24.0.1, SVG Export Plug-In . SVG Version: 6.00 Build 0)  -->
<svg version="1.1" id="Objects" xmlns="http://www.w3.org/2000/svg" xmlns:xlink="http://www.w3.org/1999/xlink" x="0px" y="0px"
	 viewBox="0 0 1695.2 1695.2" style="enable-background:new 0 0 1695.2 1695.2;" xml:space="preserve">
<style type="text/css">
	.st0{fill:#009985;}
	.st1{display:none;fill:#993800;}
	.st2{fill:#FFFFFF;}
</style>
<circle class="st0" cx="847.6" cy="847.6" r="847.6"/>
<path class="st1" d="M847.6,1695.2c-114.4,0-225.4-22.4-329.9-66.6c-100.9-42.7-191.6-103.8-269.4-181.6
	c-77.8-77.8-138.9-168.5-181.6-269.4C22.4,1073,0,962,0,847.6s22.4-225.4,66.6-329.9c42.7-100.9,103.8-191.6,181.6-269.4
	c77.8-77.8,168.5-138.9,269.4-181.6C622.2,22.4,733.2,0,847.6,0s225.4,22.4,329.9,66.6c100.9,42.7,191.6,103.8,269.4,181.6
	c77.8,77.8,138.9,168.5,181.6,269.4c44.2,104.5,66.6,215.5,66.6,329.9s-22.4,225.4-66.6,329.9c-42.7,100.9-103.8,191.6-181.6,269.4
	c-77.8,77.8-168.5,138.9-269.4,181.6C1073,1672.8,962,1695.2,847.6,1695.2z M847.6,76c-104.2,0-205.2,20.4-300.3,60.6
	C455.4,175.5,372.9,231.1,302,302c-70.9,70.9-126.5,153.4-165.4,245.3C96.4,642.4,76,743.4,76,847.6s20.4,205.2,60.6,300.3
	c38.9,91.9,94.5,174.4,165.4,245.3c70.9,70.9,153.4,126.5,245.3,165.4c95.1,40.2,196.2,60.6,300.3,60.6s205.2-20.4,300.3-60.6
	c91.9-38.9,174.4-94.5,245.3-165.4c70.9-70.9,126.5-153.4,165.4-245.3c40.2-95.1,60.6-196.2,60.6-300.3s-20.4-205.2-60.6-300.3
	c-38.9-91.9-94.5-174.4-165.4-245.3c-70.9-70.9-153.4-126.5-245.3-165.4C1052.8,96.4,951.8,76,847.6,76z"/>
<g>
	<path class="st2" d="M746.9,737.5C721.9,636,664.8,484,639.3,418.1c-2.9-7.6-11.2-11.7-19-9.5l-47.6,13.5
		c-8.6,2.4-13.4,11.4-10.7,19.9l102.3,325.1c2.8,8.8,12.4,13.3,20.9,9.9l52.3-21.1C744.8,752.9,748.8,745.1,746.9,737.5z"/>
	<path class="st2" d="M963.2,953.8c101.5,25,253.5,82.1,319.4,107.6c7.6,2.9,11.7,11.2,9.5,19l-13.5,47.6
		c-2.4,8.6-11.4,13.4-19.9,10.7l-325.1-102.3c-8.8-2.8-13.3-12.4-9.9-20.9l21.1-52.3C947.7,955.9,955.6,951.9,963.2,953.8z"/>
	<path class="st2" d="M1251.9,1159.7c-8,33.8-18.5,64.8-26.8,87.2c-8.5,22.7-28.5,39.2-52.4,43.2c-94.5,15.8-347.9,31.5-570.7-191.3
		S394.9,622.6,410.7,528c4-23.9,20.5-43.9,43.2-52.4c22.3-8.4,53.3-18.8,87.2-26.8l102.7,326.5L616,803c-12.9,12.9-16,32.8-7.4,49
		c14.1,26.5,43.9,70.9,106.5,133.5s107,92.5,133.5,106.5c16.2,8.6,36.1,5.5,49-7.4l27.7-27.7L1251.9,1159.7z"/>
</g>
</svg>
