<?xml version="1.0" encoding="iso-8859-1"?>
<!-- Generator: Adobe Illustrator 19.0.0, SVG Export Plug-In . SVG Version: 6.00 Build 0)  -->
<svg version="1.1" id="Layer_1" xmlns="http://www.w3.org/2000/svg" xmlns:xlink="http://www.w3.org/1999/xlink" x="0px" y="0px"
	 viewBox="0 0 330 330" style="enable-background:new 0 0 330 330;" xml:space="preserve">
<g id="XMLID_26_">
	<path id="XMLID_27_" d="M315,242.5h-10.805H25.805H15c-8.284,0-15,6.716-15,15v30c0,8.284,6.716,15,15,15h300
		c8.284,0,15-6.716,15-15v-30C330,249.216,323.284,242.5,315,242.5z"/>
	<path id="XMLID_28_" d="M25.805,212.5h278.391C297.213,147.261,245.239,95.287,180,88.305V57.5h15c8.284,0,15-6.716,15-15
		s-6.716-15-15-15h-60c-8.284,0-15,6.716-15,15s6.716,15,15,15h15v30.805C84.761,95.287,32.787,147.261,25.805,212.5z"/>
</g>
<g>
</g>
<g>
</g>
<g>
</g>
<g>
</g>
<g>
</g>
<g>
</g>
<g>
</g>
<g>
</g>
<g>
</g>
<g>
</g>
<g>
</g>
<g>
</g>
<g>
</g>
<g>
</g>
<g>
</g>
</svg>
