<?xml version="1.0" encoding="utf-8"?>
<!-- Generator: Adobe Illustrator 24.0.1, SVG Export Plug-In . SVG Version: 6.00 Build 0)  -->
<svg version="1.1" id="Layer_2" xmlns="http://www.w3.org/2000/svg" xmlns:xlink="http://www.w3.org/1999/xlink" x="0px" y="0px"
	 viewBox="0 0 500 470" style="enable-background:new 0 0 500 470;" xml:space="preserve">
<path d="M389.4,470H109.7c-27,0-49.7-19.8-52.7-46.1L39.6,270.4c-0.3-2.6,1.6-5,4.3-5.3c2.6-0.3,5,1.6,5.3,4.3l17.4,153.5
	c2.4,21.4,20.9,37.5,43.1,37.5h279.7c22.1,0,40.6-16.1,43.1-37.5l17.4-153.5c0.3-2.6,2.7-4.5,5.3-4.3c2.7,0.3,4.6,2.7,4.3,5.3
	L442,423.9C439,450.2,416.4,470,389.4,470z M352.2,53.2l-60.8,89.3l-6.6,9.8l-27.9,41c-5.8,8.6-15.3,13.2-24.9,13.2
	c-5.8,0-11.7-1.7-16.9-5.2l-9.2-6.3c-13.7-9.3-17.3-28-8-41.8l0.7-1l6.6-9.8l88-129.4C299,4.6,308.4,0,318.1,0
	c5.8,0,11.7,1.7,16.9,5.2l9.2,6.3C357.9,20.8,361.5,39.5,352.2,53.2z M347.2,32.5c-1-5.3-4.1-9.9-8.5-13l-9.2-6.3
	c-3.4-2.3-7.3-3.5-11.4-3.5c-6.7,0-13,3.3-16.8,8.9L217,142.6l-6.6,9.8l-4.4,6.5c-6.3,9.3-3.9,21.9,5.4,28.2l9.2,6.3
	c3.4,2.3,7.3,3.5,11.4,3.5c6.7,0,13-3.3,16.8-8.9l24.2-35.6l6.6-9.8l64.5-94.8C347.1,43.3,348.3,37.9,347.2,32.5z M500,171.9v39
	c0,16.2-13.1,29.3-29.3,29.3H29.3C13.1,240.2,0,227.1,0,210.9v-39c0-16.2,13.1-29.3,29.3-29.3H217l-6.6,9.8h-181
	c-10.8,0-19.5,8.8-19.5,19.5v39c0,10.8,8.8,19.5,19.5,19.5h441.4c10.8,0,19.5-8.8,19.5-19.5v-39c0-10.8-8.8-19.5-19.5-19.5H272.9
	l6.6-9.8h191.1C486.9,142.6,500,155.7,500,171.9z M254.4,400.5V293.6c0-2.7-2.2-4.9-4.9-4.9c-2.7,0-4.9,2.2-4.9,4.9v106.9
	c0,2.7,2.2,4.9,4.9,4.9C252.2,405.4,254.4,403.2,254.4,400.5z M342.3,401V294.1c0-2.7-2.2-4.9-4.9-4.9s-4.9,2.2-4.9,4.9V401
	c0,2.7,2.2,4.9,4.9,4.9S342.3,403.7,342.3,401z M166.5,401V294.1c0-2.7-2.2-4.9-4.9-4.9s-4.9,2.2-4.9,4.9V401c0,2.7,2.2,4.9,4.9,4.9
	S166.5,403.7,166.5,401z"/>
</svg>
