<?xml version="1.0" encoding="utf-8"?>
<!-- Generator: Adobe Illustrator 24.0.1, SVG Export Plug-In . SVG Version: 6.00 Build 0)  -->
<svg version="1.1" id="Layer_1" xmlns="http://www.w3.org/2000/svg" xmlns:xlink="http://www.w3.org/1999/xlink" x="0px" y="0px"
	 viewBox="0 0 10 7" style="enable-background:new 0 0 10 7;" xml:space="preserve">
<style type="text/css">
	.st0{fill:#E8E7E8;}
</style>
<path class="st0" d="M1.5,0.5h8.1c0.2,0,0.4-0.1,0.4-0.3l0,0C10,0.1,9.8,0,9.5,0h-8C1.2,0,1,0.1,1,0.3v0.1C1,0.4,1.2,0.5,1.5,0.5z"
	/>
<path class="st0" d="M0.5,3.8h9c0.3,0,0.5-0.1,0.5-0.3l0,0c0-0.1-0.2-0.3-0.5-0.3h-9C0.2,3.3,0,3.4,0,3.5l0,0C0,3.6,0.2,3.8,0.5,3.8
	z"/>
<path class="st0" d="M2.4,7h7.1C9.8,7,10,6.9,10,6.8V6.7c0-0.1-0.2-0.2-0.4-0.2H2.4C2.2,6.5,2,6.6,2,6.7v0.1C2,6.9,2.2,7,2.4,7z"/>
</svg>
