<?xml version="1.0" encoding="utf-8"?>
<!-- Generator: Adobe Illustrator 24.0.1, SVG Export Plug-In . SVG Version: 6.00 Build 0)  -->
<svg version="1.1" id="Layer_1" xmlns="http://www.w3.org/2000/svg" xmlns:xlink="http://www.w3.org/1999/xlink" x="0px" y="0px"
	 viewBox="0 0 10 10" style="enable-background:new 0 0 10 10;" xml:space="preserve">
<style type="text/css">
	.st0{display:none;}
	.st1{display:inline;}
	.st2{display:inline;fill:#FFFFFF;}
	.st3{fill:#F2E8E8;}
	.st4{fill:#1B121C;}
	.st5{fill:#FFFFFF;}
</style>
<g id="Layer_1_1_" class="st0">
	<circle class="st1" cx="5" cy="5" r="5"/>
	<path class="st2" d="M6.3,5.8L5,8.1L3.7,5.8H6.3 M7,5.4L7,5.4L7,5.4z M7,5.4H3l2,3.5L7,5.4L7,5.4z"/>
	<path class="st2" d="M7.3,7.2H2.8c-0.5,0-1-0.4-1-1V2.7c0-0.5,0.5-1,1-1h4.5c0.6,0,1,0.5,1,1v3.5C8.3,6.8,7.8,7.2,7.3,7.2z"/>
	<g class="st1">
		<path d="M3.5,3.2H2.4C2.3,3.2,2.2,3.1,2.2,3V2.4c0-0.1,0.1-0.2,0.2-0.2h1.1c0.1,0,0.2,0.1,0.2,0.2V3C3.7,3.1,3.7,3.2,3.5,3.2z"/>
		<path d="M3.5,4.4H2.4c-0.1,0-0.2-0.1-0.2-0.2V3.6c0-0.1,0.1-0.2,0.2-0.2h1.1c0.1,0,0.2,0.1,0.2,0.2v0.6C3.7,4.3,3.7,4.4,3.5,4.4z"
			/>
		<path d="M3.5,5.6H2.4c-0.1,0-0.2-0.1-0.2-0.2V4.8c0-0.1,0.1-0.2,0.2-0.2h1.1c0.1,0,0.2,0.1,0.2,0.2v0.6C3.7,5.5,3.7,5.6,3.5,5.6z"
			/>
		<path d="M3.5,6.8H2.4c-0.1,0-0.2-0.1-0.2-0.2V6c0-0.1,0.1-0.2,0.2-0.2h1.1c0.1,0,0.2,0.1,0.2,0.2v0.6C3.7,6.7,3.7,6.8,3.5,6.8z"/>
	</g>
	<g class="st1">
		<path d="M7.4,3H4.3C4.1,3,4,2.9,4,2.7l0,0c0-0.2,0.1-0.3,0.3-0.3h3.1c0.2,0,0.3,0.1,0.3,0.3l0,0C7.7,2.9,7.5,3,7.4,3z"/>
		<path d="M7.4,4.2H4.3C4.1,4.2,4,4.1,4,3.9l0,0c0-0.2,0.1-0.3,0.3-0.3h3.1c0.2,0,0.3,0.1,0.3,0.3l0,0C7.7,4.1,7.5,4.2,7.4,4.2z"/>
		<path d="M7.4,5.4H4.3C4.1,5.4,4,5.3,4,5.1l0,0c0-0.2,0.1-0.3,0.3-0.3h3.1c0.2,0,0.3,0.1,0.3,0.3l0,0C7.7,5.3,7.5,5.4,7.4,5.4z"/>
		<path d="M7.4,6.6H4.3C4.1,6.6,4,6.5,4,6.3l0,0C4,6.1,4.1,6,4.3,6h3.1c0.2,0,0.3,0.1,0.3,0.3l0,0C7.7,6.5,7.5,6.6,7.4,6.6z"/>
	</g>
</g>
<g id="Layer_1_copy">
	<circle class="st3" cx="5" cy="5" r="5"/>
	<path class="st4" d="M6.2,5.8L5,7.9L3.8,5.8H6.2 M6.8,5.4L6.8,5.4L6.8,5.4z M6.8,5.4H3.2L5,8.6L6.8,5.4L6.8,5.4z"/>
	<path class="st4" d="M7.1,7.1H2.9C2.4,7.1,2,6.7,2,6.2V2.9C2,2.4,2.4,2,2.9,2h4.2C7.6,2,8,2.4,8,2.9v3.2C8,6.7,7.6,7.1,7.1,7.1z"/>
	<g>
		<path class="st5" d="M3.7,3.4h-1c-0.1,0-0.2-0.1-0.2-0.2V2.6c0-0.1,0.1-0.2,0.2-0.2h1c0.1,0,0.2,0.1,0.2,0.2v0.6
			C3.8,3.3,3.8,3.4,3.7,3.4z"/>
		<path class="st5" d="M3.7,4.5h-1c-0.1,0-0.2-0.1-0.2-0.2V3.7c0-0.1,0.1-0.2,0.2-0.2h1c0.1,0,0.2,0.1,0.2,0.2v0.6
			C3.8,4.4,3.8,4.5,3.7,4.5z"/>
		<path class="st5" d="M3.7,5.6h-1c-0.1,0-0.2-0.1-0.2-0.2V4.8c0-0.1,0.1-0.2,0.2-0.2h1c0.1,0,0.2,0.1,0.2,0.2v0.6
			C3.8,5.5,3.8,5.6,3.7,5.6z"/>
		<path class="st5" d="M3.7,6.7h-1c-0.1,0-0.2-0.1-0.2-0.2V5.9c0-0.1,0.1-0.2,0.2-0.2h1c0.1,0,0.2,0.1,0.2,0.2v0.6
			C3.8,6.6,3.8,6.7,3.7,6.7z"/>
	</g>
	<g>
		<path class="st5" d="M7.2,3.2H4.3C4.2,3.2,4,3.1,4,2.9l0,0c0-0.2,0.1-0.3,0.3-0.3h2.9c0.2,0,0.3,0.1,0.3,0.3l0,0
			C7.5,3.1,7.3,3.2,7.2,3.2z"/>
		<path class="st5" d="M7.2,4.3H4.3C4.2,4.3,4,4.2,4,4l0,0c0-0.2,0.1-0.3,0.3-0.3h2.9c0.2,0,0.3,0.1,0.3,0.3l0,0
			C7.5,4.2,7.3,4.3,7.2,4.3z"/>
		<path class="st5" d="M7.2,5.4H4.3C4.2,5.4,4,5.3,4,5.1l0,0C4,5,4.2,4.8,4.3,4.8h2.9c0.2,0,0.3,0.1,0.3,0.3l0,0
			C7.5,5.3,7.3,5.4,7.2,5.4z"/>
		<path class="st5" d="M7.2,6.5H4.3C4.2,6.5,4,6.4,4,6.2l0,0C4,6,4.1,5.9,4.3,5.9h2.9c0.2,0,0.3,0.1,0.3,0.3l0,0
			C7.5,6.4,7.3,6.5,7.2,6.5z"/>
	</g>
</g>
</svg>
